<svg id="Alert" width="none" height="none" viewBox="0 0 42 42" fill="none" xmlns="http://www.w3.org/2000/svg">
<circle cx="20.9769" cy="20.9769" r="19.8872" fill="url(#paint0_linear_97_995)" stroke="white" stroke-width="2.17942"/>
<path d="M29.2036 27.2937L21.2351 13.502C21.1163 13.2971 20.9114 13.1956 20.7045 13.1956C20.4976 13.1956 20.2908 13.2971 20.1739 13.502L12.2054 27.2937C11.9698 27.7036 12.2648 28.2131 12.736 28.2131H28.673C29.1442 28.2131 29.4392 27.7036 29.2036 27.2937ZM20.0915 18.8655C20.0915 18.7812 20.1605 18.7122 20.2448 18.7122H21.1642C21.2485 18.7122 21.3175 18.7812 21.3175 18.8655V22.39C21.3175 22.4743 21.2485 22.5432 21.1642 22.5432H20.2448C20.1605 22.5432 20.0915 22.4743 20.0915 22.39V18.8655ZM20.7045 25.608C20.4639 25.6031 20.2348 25.5041 20.0664 25.3322C19.898 25.1603 19.8036 24.9292 19.8036 24.6886C19.8036 24.4479 19.898 24.2169 20.0664 24.045C20.2348 23.8731 20.4639 23.7741 20.7045 23.7691C20.9451 23.7741 21.1742 23.8731 21.3426 24.045C21.511 24.2169 21.6054 24.4479 21.6054 24.6886C21.6054 24.9292 21.511 25.1603 21.3426 25.3322C21.1742 25.5041 20.9451 25.6031 20.7045 25.608V25.608Z" fill="#FF2424"/>
<defs>
<linearGradient id="paint0_linear_97_995" x1="-11.0758" y1="-20.3098" x2="85.4539" y2="-25.4342" gradientUnits="userSpaceOnUse">
<stop offset="0.133971" stop-color="#FFE4E2"/>
<stop offset="0.577753" stop-color="white"/>
</linearGradient>
</defs>
</svg>
