<svg id="ArrowLeft" width="none" height="none" viewBox="0 0 24 24" fill="none" xmlns="http://www.w3.org/2000/svg">
<path fill-rule="evenodd" clip-rule="evenodd" d="M16.256 4.24169C16.5806 4.56321 16.5828 5.08445 16.2538 5.40597L8.92773 12.5826C8.5998 12.9041 8.06998 12.903 7.74428 12.5804C7.58254 12.4202 7.5 12.2095 7.5 11.9999C7.5 11.7881 7.58254 11.5774 7.74651 11.4172L15.0725 4.24059C15.4005 3.91907 15.9303 3.92017 16.256 4.24169ZM16.2537 18.5929C16.5827 18.9145 16.5805 19.4357 16.2559 19.7572C15.9302 20.0798 15.4004 20.0809 15.0724 19.7605L10.207 14.9948C10.043 14.8345 9.96049 14.6228 9.96049 14.4121C9.96049 14.2025 10.043 13.9918 10.2048 13.8316C10.5305 13.509 11.0603 13.5079 11.3882 13.8283L16.2537 18.5929Z" fill="#130F26"/>
</svg>
