<svg id="Confirmation" width="none" height="none" viewBox="0 0 42 42" fill="none" xmlns="http://www.w3.org/2000/svg">
<circle cx="20.9769" cy="20.9769" r="19.8872" fill="url(#paint0_linear_97_987)" stroke="white" stroke-width="2.17942"/>
<path d="M20.7045 12.123C15.9656 12.123 12.123 15.9656 12.123 20.7045C12.123 25.4435 15.9656 29.286 20.7045 29.286C25.4435 29.286 29.286 25.4435 29.286 20.7045C29.286 15.9656 25.4435 12.123 20.7045 12.123ZM24.411 17.9021L20.377 23.4954C20.3206 23.5741 20.2462 23.6382 20.1601 23.6825C20.074 23.7267 19.9786 23.7498 19.8818 23.7498C19.785 23.7498 19.6896 23.7267 19.6035 23.6825C19.5174 23.6382 19.443 23.5741 19.3866 23.4954L16.998 20.1854C16.9252 20.0839 16.998 19.9421 17.1225 19.9421H18.0209C18.2163 19.9421 18.4021 20.036 18.517 20.1969L19.8808 22.0894L22.892 17.9136C23.0069 17.7546 23.1908 17.6589 23.3881 17.6589H24.2865C24.411 17.6589 24.4838 17.8006 24.411 17.9021V17.9021Z" fill="#00CB4A"/>
<defs>
<linearGradient id="paint0_linear_97_987" x1="-11.0758" y1="-20.3098" x2="53.8605" y2="-7.2853" gradientUnits="userSpaceOnUse">
<stop offset="0.133971" stop-color="#6BC08A" stop-opacity="0.45"/>
<stop offset="0.944055" stop-color="white"/>
</linearGradient>
</defs>
</svg>
