<svg width="9" height="9" viewBox="0 0 9 9" fill="none" xmlns="http://www.w3.org/2000/svg">
<path fill-rule="evenodd" clip-rule="evenodd" d="M8.15603 6.44463C8.1624 6.45551 8.16765 6.46713 8.17253 6.47876C8.21715 6.58863 8.24265 6.70451 8.24903 6.82301C8.26365 7.10613 8.16728 7.37763 7.97715 7.58838C7.7874 7.79913 7.52678 7.92326 7.24365 7.93751L3.20978 7.93788C3.05453 7.93788 2.92853 7.81188 2.92853 7.65663C2.92853 7.50138 3.05453 7.37538 3.20978 7.37538H7.2294C7.3479 7.36863 7.47015 7.31088 7.55978 7.21151C7.64903 7.11251 7.69403 6.98538 7.68728 6.85226C7.68465 6.80201 7.67453 6.75251 7.6569 6.70526L4.93853 1.94801C4.8039 1.70463 4.49978 1.61688 4.25903 1.75001C4.1769 1.79538 4.10978 1.86251 4.0644 1.94463L1.34378 6.70563C1.2999 6.82488 1.3029 6.95426 1.3524 7.07163C1.40415 7.19426 1.50053 7.28951 1.6239 7.33938C1.67603 7.36076 1.73003 7.37276 1.7859 7.37576C1.94078 7.38326 2.0604 7.51563 2.05253 7.67088C2.04503 7.82088 1.92053 7.93788 1.77165 7.93788C1.76678 7.93788 1.76228 7.93788 1.7574 7.93751C1.63815 7.93151 1.5219 7.90563 1.41165 7.86063C1.1499 7.75413 0.944775 7.55163 0.834525 7.29063C0.7239 7.02963 0.722025 6.74088 0.8289 6.47838C0.8334 6.46676 0.83865 6.45551 0.845025 6.44463L3.5739 1.66901C3.6684 1.49801 3.81203 1.35476 3.9864 1.25763C4.49903 0.974133 5.1459 1.16013 5.42903 1.67238L8.15603 6.44463ZM4.50053 5.09925C4.65578 5.09925 4.78178 4.97325 4.78178 4.818V3.75787C4.78178 3.60262 4.65578 3.47662 4.50053 3.47662C4.34528 3.47662 4.21928 3.60262 4.21928 3.75787V4.818C4.21928 4.97325 4.34528 5.09925 4.50053 5.09925ZM4.50053 6.38209C4.65578 6.38209 4.78178 6.25609 4.78178 6.10084V6.09709C4.78178 5.94184 4.65578 5.81771 4.50053 5.81771C4.34528 5.81771 4.21928 5.94559 4.21928 6.10084C4.21928 6.25609 4.34528 6.38209 4.50053 6.38209Z" fill="white"/>
</svg>
