<svg id="hand" width="none" height="none" viewBox="0 0 24 24" fill="none" xmlns="http://www.w3.org/2000/svg">
<g clip-path="url(#clip0_2_33)">
<path d="M23.7059 11.1535C23.2981 10.8035 22.7823 10.6044 22.2451 10.5899C21.7079 10.5753 21.182 10.7461 20.7559 11.0735L18.8659 12.5135L20.3309 4.61354C20.3818 4.34804 20.3322 4.0731 20.1917 3.84211C20.0513 3.61111 19.83 3.44055 19.5709 3.36354C19.4317 3.32023 19.2852 3.30554 19.1403 3.32035C18.9953 3.33515 18.8548 3.37915 18.7272 3.44969C18.5997 3.52023 18.4878 3.61586 18.3982 3.7308C18.3086 3.84575 18.2432 3.97765 18.2059 4.11854L16.8659 9.11854V3.31354C16.8766 3.14508 16.8527 2.97622 16.7956 2.81736C16.7386 2.65851 16.6495 2.51304 16.534 2.38995C16.4185 2.26685 16.279 2.16874 16.1241 2.10167C15.9692 2.0346 15.8022 2 15.6334 2C15.4646 2 15.2976 2.0346 15.1427 2.10167C14.9878 2.16874 14.8483 2.26685 14.7328 2.38995C14.6173 2.51304 14.5282 2.65851 14.4712 2.81736C14.4141 2.97622 14.3902 3.14508 14.4009 3.31354V9.01354L13.1359 3.58354C13.0627 3.32383 12.8937 3.10158 12.6629 2.9617C12.4322 2.82182 12.1569 2.77474 11.8928 2.82998C11.6287 2.88522 11.3954 3.03865 11.24 3.25927C11.0847 3.47989 11.0189 3.75126 11.0559 4.01854C11.3609 5.85354 11.9709 9.63854 11.9709 9.63854L9.97089 5.82354C9.8469 5.57689 9.63001 5.3896 9.36793 5.30286C9.10585 5.21612 8.82004 5.23705 8.57339 5.36104C8.32674 5.48503 8.13945 5.70192 8.05271 5.964C7.96598 6.22609 7.9869 6.51189 8.11089 6.75854L9.49589 9.60854C9.85696 10.3465 10.0451 11.157 10.0459 11.9785V13.5685C10.0452 14.1793 10.1655 14.7841 10.3998 15.3481C10.6341 15.9121 10.9778 16.4241 11.4111 16.8546C11.8444 17.285 12.3586 17.6254 12.9241 17.8561C13.4896 18.0868 14.0952 18.2032 14.7059 18.1985C15.6339 18.1985 16.5522 18.0097 17.4049 17.6435C18.2576 17.2773 19.0269 16.7415 19.6659 16.0685L23.7059 11.8135C23.7534 11.7727 23.7916 11.7221 23.8178 11.6651C23.8439 11.6082 23.8575 11.5462 23.8575 11.4835C23.8575 11.4209 23.8439 11.3589 23.8178 11.302C23.7916 11.245 23.7534 11.1944 23.7059 11.1535Z" fill="white"/>
<path d="M23.7059 11.1535C23.2981 10.8035 22.7823 10.6044 22.2451 10.5899C21.7079 10.5753 21.182 10.7461 20.7559 11.0735L18.8659 12.5135H16.3659C16.007 12.5141 15.6531 12.598 15.3321 12.7585C15.0111 12.919 14.7317 13.1518 14.5159 13.4385L16.5159 13.6135C18.0326 13.7492 19.5452 13.3122 20.7559 12.3885C21.1203 12.1072 21.56 11.9404 22.0193 11.9093C22.4786 11.8781 22.9368 11.984 23.3359 12.2135L23.7059 11.8135C23.7534 11.7727 23.7916 11.7221 23.8178 11.6651C23.8439 11.6082 23.8575 11.5462 23.8575 11.4835C23.8575 11.4209 23.8439 11.3589 23.8178 11.302C23.7916 11.245 23.7534 11.1944 23.7059 11.1535Z" fill="white"/>
<path d="M19.0209 4.47354C19.271 4.47412 19.5159 4.54468 19.728 4.67722C19.94 4.80976 20.1108 4.999 20.2209 5.22354L20.3309 4.61354C20.3818 4.34804 20.3322 4.0731 20.1917 3.84211C20.0513 3.61111 19.83 3.44055 19.5709 3.36354C19.4317 3.32023 19.2852 3.30554 19.1403 3.32035C18.9953 3.33515 18.8548 3.37915 18.7272 3.44969C18.5997 3.52023 18.4878 3.61586 18.3982 3.7308C18.3086 3.84575 18.2432 3.97764 18.2059 4.11854L17.9759 4.96854C18.1016 4.8127 18.2608 4.68724 18.4418 4.60153C18.6227 4.51582 18.8207 4.47207 19.0209 4.47354Z" fill="white"/>
<path d="M15.6409 3.38854C15.9066 3.38843 16.1663 3.46791 16.3864 3.61674C16.6065 3.76557 16.777 3.97692 16.8759 4.22354V3.31354C16.8866 3.14508 16.8627 2.97622 16.8056 2.81736C16.7485 2.65851 16.6595 2.51304 16.544 2.38995C16.4285 2.26685 16.289 2.16874 16.1341 2.10167C15.9792 2.0346 15.8122 2 15.6434 2C15.4746 2 15.3076 2.0346 15.1527 2.10167C14.9978 2.16874 14.8583 2.26685 14.7428 2.38995C14.6273 2.51304 14.5382 2.65851 14.4811 2.81736C14.4241 2.97622 14.4002 3.14508 14.4109 3.31354V4.22854C14.5075 3.98098 14.6766 3.76836 14.8961 3.61848C15.1155 3.46861 15.3751 3.38847 15.6409 3.38854Z" fill="white"/>
<path d="M9.6109 6.22354C9.86451 6.22245 10.1117 6.3031 10.3159 6.45354L9.9909 5.81354C9.86691 5.56688 9.65002 5.37959 9.38793 5.29285C9.12585 5.20612 8.84005 5.22705 8.5934 5.35104C8.34675 5.47502 8.15945 5.69192 8.07272 5.954C7.98598 6.21608 8.00691 6.50189 8.1309 6.74854L8.4109 7.31354C8.44059 7.01557 8.57972 6.7392 8.80137 6.53786C9.02302 6.33653 9.31146 6.22453 9.6109 6.22354Z" fill="white"/>
<path d="M11.2059 4.77854C11.2857 4.53626 11.4397 4.32523 11.6461 4.17536C11.8525 4.02549 12.1008 3.94439 12.3559 3.94354C12.5566 3.94614 12.7534 3.99927 12.9282 4.09802C13.103 4.19676 13.2501 4.33795 13.3559 4.50854L13.1409 3.58354C13.1092 3.4505 13.0515 3.32502 12.9713 3.21429C12.891 3.10355 12.7897 3.00974 12.6731 2.93822C12.5565 2.86669 12.427 2.81887 12.2919 2.79747C12.1568 2.77608 12.0189 2.78154 11.8859 2.81354H11.8609C11.5988 2.87468 11.3698 3.03322 11.2203 3.25699C11.0708 3.48076 11.012 3.75302 11.0559 4.01854C11.0959 4.24854 11.1359 4.50354 11.2059 4.77854Z" fill="white"/>
<path d="M23.7059 11.1535C23.2981 10.8035 22.7823 10.6044 22.2451 10.5899C21.7079 10.5753 21.182 10.7461 20.7559 11.0735L18.8659 12.5135L20.3309 4.61354C20.3818 4.34804 20.3322 4.0731 20.1917 3.84211C20.0513 3.61111 19.83 3.44055 19.5709 3.36354C19.4317 3.32023 19.2852 3.30554 19.1403 3.32035C18.9953 3.33515 18.8548 3.37915 18.7272 3.44969C18.5997 3.52023 18.4878 3.61586 18.3982 3.7308C18.3086 3.84575 18.2432 3.97765 18.2059 4.11854L16.8659 9.11854V3.31354C16.8766 3.14508 16.8527 2.97622 16.7956 2.81736C16.7386 2.65851 16.6495 2.51304 16.534 2.38995C16.4185 2.26685 16.279 2.16874 16.1241 2.10167C15.9692 2.0346 15.8022 2 15.6334 2C15.4646 2 15.2976 2.0346 15.1427 2.10167C14.9878 2.16874 14.8483 2.26685 14.7328 2.38995C14.6173 2.51304 14.5282 2.65851 14.4712 2.81736C14.4141 2.97622 14.3902 3.14508 14.4009 3.31354V9.01354L13.1359 3.58354C13.0627 3.32383 12.8937 3.10158 12.6629 2.9617C12.4322 2.82182 12.1569 2.77474 11.8928 2.82998C11.6287 2.88522 11.3954 3.03865 11.24 3.25927C11.0847 3.47989 11.0189 3.75126 11.0559 4.01854C11.3609 5.85354 11.9709 9.63854 11.9709 9.63854L9.97089 5.82354C9.8469 5.57689 9.63001 5.3896 9.36793 5.30286C9.10585 5.21612 8.82004 5.23705 8.57339 5.36104C8.32674 5.48503 8.13945 5.70192 8.05271 5.964C7.96598 6.22609 7.9869 6.51189 8.11089 6.75854L9.49589 9.60854C9.85696 10.3465 10.0451 11.157 10.0459 11.9785V13.5685C10.0452 14.1793 10.1655 14.7841 10.3998 15.3481C10.6341 15.9121 10.9778 16.4241 11.4111 16.8546C11.8444 17.285 12.3586 17.6254 12.9241 17.8561C13.4896 18.0868 14.0952 18.2032 14.7059 18.1985C15.6339 18.1985 16.5522 18.0097 17.4049 17.6435C18.2576 17.2773 19.0269 16.7415 19.6659 16.0685L23.7059 11.8135C23.7534 11.7727 23.7916 11.7221 23.8178 11.6651C23.8439 11.6082 23.8575 11.5462 23.8575 11.4835C23.8575 11.4209 23.8439 11.3589 23.8178 11.302C23.7916 11.245 23.7534 11.1944 23.7059 11.1535V11.1535Z" stroke="#45413C" stroke-width="0.5" stroke-linecap="round" stroke-linejoin="round"/>
<path d="M14.3759 13.6685C14.5786 13.3175 14.8701 13.0259 15.2212 12.8232C15.5723 12.6204 15.9705 12.5136 16.3759 12.5135H18.8759" stroke="#45413C" stroke-width="0.5" stroke-linecap="round" stroke-linejoin="round"/>
<path opacity="0.15" d="M9.70589 20.5635C9.70589 20.7624 10.2853 20.9532 11.3168 21.0939C12.3482 21.2345 13.7472 21.3135 15.2059 21.3135C16.6646 21.3135 18.0635 21.2345 19.095 21.0939C20.1264 20.9532 20.7059 20.7624 20.7059 20.5635C20.7059 20.3646 20.1264 20.1739 19.095 20.0332C18.0635 19.8926 16.6646 19.8135 15.2059 19.8135C13.7472 19.8135 12.3482 19.8926 11.3168 20.0332C10.2853 20.1739 9.70589 20.3646 9.70589 20.5635Z" fill="#45413C"/>
</g>
<defs>
<clipPath id="clip0_2_33">
<rect width="24" height="24" fill="white"/>
</clipPath>
</defs>
</svg>
