<svg width="10" height="10" viewBox="0 0 10 10" fill="none" xmlns="http://www.w3.org/2000/svg">
<g clip-path="url(#clip0_47_1141)">
<path d="M8.3125 6.33335V3.16668C8.31236 3.02786 8.27571 2.8915 8.20623 2.77131C8.13676 2.65112 8.0369 2.55131 7.91667 2.48189L5.14583 0.898559C5.02548 0.829076 4.88897 0.792496 4.75 0.792496C4.61103 0.792496 4.47452 0.829076 4.35417 0.898559L1.58333 2.48189C1.4631 2.55131 1.36324 2.65112 1.29377 2.77131C1.22429 2.8915 1.18764 3.02786 1.1875 3.16668V6.33335C1.18764 6.47218 1.22429 6.60853 1.29377 6.72872C1.36324 6.84892 1.4631 6.94873 1.58333 7.01814L4.35417 8.60148C4.47452 8.67096 4.61103 8.70754 4.75 8.70754C4.88897 8.70754 5.02548 8.67096 5.14583 8.60148L7.91667 7.01814C8.0369 6.94873 8.13676 6.84892 8.20623 6.72872C8.27571 6.60853 8.31236 6.47218 8.3125 6.33335Z" stroke="#130A3B" stroke-width="0.791667" stroke-linecap="round" stroke-linejoin="round"/>
</g>
<defs>
<clipPath id="clip0_47_1141">
<rect width="9.5" height="9.5" fill="white"/>
</clipPath>
</defs>
</svg>
