<svg id="Home" xmlns="http://www.w3.org/2000/svg" width="none" height="none" viewBox="0 0 20 20" fill="none">
<path fill-rule="evenodd" clip-rule="evenodd" d="M18.1522 5.59135C18.8642 6.164 19.2822 7.02551 19.2913 7.93918L19.2826 15.9131C19.2826 18.079 17.5268 19.8348 15.3609 19.8348H13.6217C12.5734 19.8348 11.7222 18.9875 11.7174 17.9392V14.3392C11.7174 14.0606 11.4916 13.8348 11.213 13.8348H8.60435C8.46907 13.8348 8.33945 13.8891 8.24461 13.9856C8.14977 14.0821 8.09767 14.2126 8.1 14.3479V15.7218C8.1 16.154 7.74961 16.5044 7.31739 16.5044C6.88517 16.5044 6.53478 16.154 6.53478 15.7218V14.3479C6.53478 13.7967 6.75374 13.2681 7.14349 12.8783C7.53324 12.4886 8.06185 12.2696 8.61304 12.2696H11.2217C12.3661 12.2744 13.2913 13.2035 13.2913 14.3479V17.9392C13.2913 18.1217 13.4392 18.2696 13.6217 18.2696H15.4043C16.701 18.2696 17.7522 17.2185 17.7522 15.9218V7.95657C17.7458 7.51531 17.5415 7.10027 17.1957 6.82613L11.187 2.03483C10.4293 1.41103 9.33595 1.41103 8.57826 2.03483L6.64783 3.47831C6.29004 3.73524 5.79172 3.65348 5.53478 3.2957C5.27785 2.93791 5.35961 2.43959 5.71739 2.18266L7.62174 0.800047C8.94214 -0.261311 10.8231 -0.261311 12.1435 0.800047L18.1522 5.59135ZM4.42174 18.2609H8.42174V18.2783C8.85396 18.2783 9.20435 18.6287 9.20435 19.0609C9.20435 19.4931 8.85396 19.8435 8.42174 19.8435H4.42174C2.25781 19.8387 0.504782 18.0857 0.5 15.9218V7.95657C0.513835 7.03615 0.945876 6.17206 1.67391 5.60874L2.39565 5.06961C2.73552 4.90939 3.14129 5.01332 3.36229 5.3172C3.58329 5.62107 3.55714 6.03912 3.3 6.31309L2.59565 6.83483C2.26191 7.1121 2.06776 7.52268 2.06522 7.95657V15.9131C2.07474 17.2092 3.12562 18.2562 4.42174 18.2609Z" fill="#130A3B" />
</svg>