<svg id="Information" width="none" height="none" viewBox="0 0 42 42" fill="none" xmlns="http://www.w3.org/2000/svg">
<circle cx="20.9769" cy="20.9769" r="19.8872" fill="url(#paint0_linear_97_991)" stroke="white" stroke-width="2.17942"/>
<path d="M21.2494 12.6677C16.5105 12.6677 12.668 16.5102 12.668 21.2492C12.668 25.9881 16.5105 29.8307 21.2494 29.8307C25.9884 29.8307 29.8309 25.9881 29.8309 21.2492C29.8309 16.5102 25.9884 12.6677 21.2494 12.6677ZM21.8624 25.3867C21.8624 25.471 21.7934 25.5399 21.7092 25.5399H20.7897C20.7054 25.5399 20.6365 25.471 20.6365 25.3867V20.1765C20.6365 20.0922 20.7054 20.0233 20.7897 20.0233H21.7092C21.7934 20.0233 21.8624 20.0922 21.8624 20.1765V25.3867ZM21.2494 18.7973C21.0088 18.7924 20.7797 18.6934 20.6113 18.5215C20.4429 18.3496 20.3486 18.1186 20.3486 17.8779C20.3486 17.6372 20.4429 17.4062 20.6113 17.2343C20.7797 17.0624 21.0088 16.9634 21.2494 16.9585C21.49 16.9634 21.7191 17.0624 21.8875 17.2343C22.056 17.4062 22.1503 17.6372 22.1503 17.8779C22.1503 18.1186 22.056 18.3496 21.8875 18.5215C21.7191 18.6934 21.49 18.7924 21.2494 18.7973Z" fill="#6A2BFB"/>
<defs>
<linearGradient id="paint0_linear_97_991" x1="-11.0758" y1="-20.3098" x2="76.4273" y2="-32.4942" gradientUnits="userSpaceOnUse">
<stop offset="0.133971" stop-color="#6A2BFB" stop-opacity="0.52"/>
<stop offset="0.577753" stop-color="white"/>
</linearGradient>
</defs>
</svg>
