<svg id="Logout" width="none" height="none" viewBox="0 0 24 24" fill="none" xmlns="http://www.w3.org/2000/svg">
<path fill-rule="evenodd" clip-rule="evenodd" d="M20.5 10.0511C20.5 9.64733 20.836 9.31956 21.2499 9.31956C21.6638 9.31956 21.9998 9.64733 21.9998 10.0511L21.9998 17.2856C21.9998 19.6094 20.0617 21.5 17.6785 21.5L12.9325 21.5C10.5445 21.5 8.6015 19.6047 8.6015 17.2752L8.6015 16.3907C8.6015 15.9879 8.9375 15.6601 9.35142 15.6601C9.76534 15.6601 10.1013 15.9879 10.1013 16.3907L10.1013 17.2752C10.1013 18.799 11.3713 20.0369 12.9325 20.0369L17.6785 20.0369C19.2348 20.0369 20.5 18.8019 20.5 17.2856L20.5 10.0511ZM10.1015 7.60835C10.1015 8.01212 9.76554 8.33988 9.35162 8.33988C8.9377 8.33988 8.60169 8.01212 8.60169 7.60835L8.60169 6.71437C8.60169 4.39057 10.5398 2.5 12.923 2.5L17.6699 2.5C20.057 2.5 22 4.39533 22 6.72482C22 7.12859 21.664 7.4554 21.2501 7.4554C20.8362 7.4554 20.5002 7.12859 20.5002 6.72482C20.5002 5.20096 19.2302 3.96306 17.6699 3.96306L12.923 3.96306C11.3667 3.96306 10.1015 5.19716 10.1015 6.71437L10.1015 7.60835ZM2.05671 12.2791C2.17261 12.5537 2.44628 12.7323 2.75015 12.7323L14.4509 12.7323C14.8648 12.7323 15.2018 12.4036 15.2018 11.9998C15.2018 11.596 14.8648 11.2683 14.4509 11.2683L4.56555 11.2683L6.1248 9.75392C6.41893 9.46891 6.41893 9.00624 6.12675 8.71933C5.98066 8.57587 5.78782 8.50367 5.59596 8.50367C5.4041 8.50367 5.21321 8.57587 5.06615 8.71743L2.22033 11.4811C2.00607 11.6901 1.94082 12.0055 2.05671 12.2791ZM4.87818 13.3393C5.06907 13.3393 5.25996 13.4105 5.40605 13.5511L6.12383 14.2437C6.41796 14.5278 6.4199 14.9914 6.1287 15.2773C5.83652 15.5662 5.36319 15.5681 5.06809 15.283L4.35128 14.5914C4.05618 14.3064 4.05424 13.8437 4.34544 13.5568C4.4925 13.4124 4.68534 13.3393 4.87818 13.3393Z" fill="#130F26"/>
</svg>
