<svg id="man"  width="none" height="none" viewBox="0 0 24 24" fill="none" xmlns="http://www.w3.org/2000/svg">
<path d="M16.11 21.5H7.875C7.75574 21.5092 7.636 21.4902 7.52538 21.4447C7.41477 21.3992 7.31637 21.3284 7.23809 21.2379C7.15981 21.1475 7.10382 21.04 7.07463 20.924C7.04544 20.808 7.04385 20.6867 7.07 20.57L8.5 15.655H13.145C13.9289 15.6218 14.6993 15.8665 15.3204 16.3458C15.9415 16.8251 16.3734 17.5083 16.54 18.275L16.925 20.65C16.9352 20.7612 16.9213 20.8733 16.8844 20.9786C16.8476 21.084 16.7885 21.1802 16.7112 21.2608C16.634 21.3414 16.5403 21.4044 16.4366 21.4457C16.3329 21.487 16.2215 21.5055 16.11 21.5Z" fill="#E0E0E0"/>
<path d="M13.155 15.655H8.5L7.735 18.3C9.34 18.515 11.68 18.56 13.17 18C14.0988 17.6904 14.9988 17.3006 15.86 16.835C15.5179 16.4586 15.1 16.1589 14.6338 15.9555C14.1676 15.7522 13.6636 15.6497 13.155 15.655Z" fill="#BDBEC0"/>
<path d="M16.11 21.5H7.875C7.75574 21.5092 7.636 21.4902 7.52538 21.4447C7.41477 21.3992 7.31637 21.3284 7.23809 21.2379C7.15981 21.1475 7.10382 21.04 7.07463 20.924C7.04544 20.808 7.04385 20.6867 7.07 20.57L8.5 15.655H13.145C13.9289 15.6218 14.6993 15.8665 15.3204 16.3458C15.9415 16.8251 16.3734 17.5083 16.54 18.275L16.925 20.65C16.9352 20.7612 16.9213 20.8733 16.8844 20.9786C16.8476 21.084 16.7885 21.1802 16.7112 21.2608C16.634 21.3414 16.5403 21.4044 16.4366 21.4457C16.3329 21.487 16.2215 21.5055 16.11 21.5Z" stroke="#45413C" stroke-width="0.5" stroke-linecap="round" stroke-linejoin="round"/>
<path d="M6.14001 16.645C7.18501 17.2 10.64 17.73 12.535 16.645C14.43 15.56 15.235 14.99 15.28 14.645C15.325 14.3 15.975 7.64502 16.455 5.20002C16.935 2.75502 16.15 1.71502 14.5 1.50002C13.8084 1.42875 13.1096 1.49595 12.4443 1.69769C11.779 1.89943 11.1605 2.23167 10.625 2.67502C9.88799 3.36205 9.20435 4.10419 8.58001 4.89502C8.14501 5.55002 8.71001 6.85502 8.71001 6.85502C8.71001 6.85502 6.92501 11.6 6.53501 13.425C6.14501 15.25 5.72501 16.42 6.14001 16.645Z" fill="#BDBEC0"/>
<path d="M14.5 1.50002C13.8084 1.42875 13.1096 1.49595 12.4443 1.69769C11.779 1.89943 11.1605 2.23167 10.625 2.67502C9.88798 3.36205 9.20434 4.10419 8.58001 4.89502C8.21501 5.44502 8.58001 6.44502 8.67001 6.75502C10.0047 6.21137 11.4485 5.98873 12.885 6.10502C14.0207 6.29536 15.1203 6.65964 16.145 7.18502C16.25 6.40502 16.36 5.71002 16.46 5.18502C16.93 2.76002 16.15 1.71502 14.5 1.50002Z" fill="#87898C"/>
<path d="M14.5 1.50002C13.8084 1.42875 13.1096 1.49595 12.4443 1.69769C11.779 1.89943 11.1605 2.23167 10.625 2.67502C9.88798 3.36205 9.20434 4.10419 8.58 4.89502C9.235 4.11502 12.28 3.67502 12.975 3.89502C13.67 4.11502 14.11 5.68002 14.11 5.68002C14.11 5.68002 12.89 9.55502 11.77 12.34C10.65 15.125 9.67 17.27 8.93 17.26C10.1664 17.3898 11.4148 17.1788 12.54 16.65C14.455 15.56 15.24 14.995 15.285 14.65C15.33 14.305 15.98 7.65002 16.46 5.20502C16.94 2.76002 16.15 1.71502 14.5 1.50002Z" fill="#E0E0E0"/>
<path d="M14.5 2.90001C15.625 3.05001 16.345 3.58001 16.545 4.67501C16.815 2.61001 16.045 1.67501 14.5 1.49501C13.8084 1.42375 13.1096 1.49095 12.4443 1.69269C11.779 1.89443 11.1605 2.22667 10.625 2.67001C9.88798 3.35704 9.20434 4.09918 8.58 4.89001C8.895 4.51001 9.775 4.21501 10.675 4.03501C11.7494 3.16512 13.125 2.75693 14.5 2.90001Z" fill="white"/>
<path opacity="0.15" d="M5.99501 22.215C5.99501 22.4232 6.62768 22.6229 7.75383 22.7701C8.87999 22.9173 10.4074 23 12 23C13.5926 23 15.12 22.9173 16.2462 22.7701C17.3723 22.6229 18.005 22.4232 18.005 22.215C18.005 22.0068 17.3723 21.8072 16.2462 21.6599C15.12 21.5127 13.5926 21.43 12 21.43C10.4074 21.43 8.87999 21.5127 7.75383 21.6599C6.62768 21.8072 5.99501 22.0068 5.99501 22.215Z" fill="#45413C"/>
<path d="M6.14001 16.645C7.18501 17.2 10.64 17.73 12.535 16.645C14.43 15.56 15.235 14.99 15.28 14.645C15.325 14.3 15.975 7.64502 16.455 5.20002C16.935 2.75502 16.15 1.71502 14.5 1.50002C13.8084 1.42875 13.1096 1.49595 12.4443 1.69769C11.779 1.89943 11.1605 2.23167 10.625 2.67502C9.88799 3.36205 9.20435 4.10419 8.58001 4.89502C8.14501 5.55002 8.71001 6.85502 8.71001 6.85502C8.71001 6.85502 6.92501 11.6 6.53501 13.425C6.14501 15.25 5.72501 16.42 6.14001 16.645Z" stroke="#45413C" stroke-width="0.5" stroke-linecap="round" stroke-linejoin="round"/>
<path d="M14.5 1.50002C13.8084 1.42875 13.1096 1.49595 12.4443 1.69769C11.779 1.89943 11.1605 2.23167 10.625 2.67502C9.88798 3.36205 9.20434 4.10419 8.58 4.89502C9.235 4.11502 12.28 3.67502 12.975 3.89502C13.67 4.11502 14.11 5.68002 14.11 5.68002C14.11 5.68002 12.89 9.55502 11.77 12.34C10.65 15.125 9.67 17.27 8.93 17.26C10.1664 17.3898 11.4148 17.1788 12.54 16.65C14.455 15.56 15.24 14.995 15.285 14.65C15.33 14.305 15.98 7.65002 16.46 5.20502C16.94 2.76002 16.15 1.71502 14.5 1.50002Z" stroke="#45413C" stroke-width="0.5" stroke-linecap="round" stroke-linejoin="round"/>
<path d="M10 4.89001C10 4.89001 7.43501 7.89001 6.74001 8.89001C6.04501 9.89001 5.91501 10.325 5.95501 10.85C5.99501 11.375 7.00001 11.685 7.00001 11.685C7.00001 11.685 9.69001 11.375 10 10.985C10.31 10.595 11.755 6.06501 11.755 6.06501C11.7314 5.86572 11.6649 5.67391 11.5601 5.50276C11.4553 5.33161 11.3147 5.18518 11.148 5.07353C10.9812 4.96189 10.7923 4.88767 10.5941 4.85599C10.3959 4.82431 10.1933 4.83592 10 4.89001Z" fill="#E0E0E0"/>
<path d="M9.29001 10.44C8.21001 10.095 6.43501 9.86502 6.02501 10.225C5.96622 10.4295 5.94587 10.6431 5.96501 10.855C6.01001 11.355 7.01501 11.685 7.01501 11.685C7.01501 11.685 9.70501 11.375 10.015 10.985L10.07 10.895C9.84676 10.6877 9.58039 10.5323 9.29001 10.44Z" fill="#87898C"/>
<path d="M10 4.89001C10 4.89001 7.43501 7.89001 6.74001 8.89001C6.04501 9.89001 5.91501 10.325 5.95501 10.85C5.99501 11.375 7.00001 11.685 7.00001 11.685C7.00001 11.685 9.69001 11.375 10 10.985C10.31 10.595 11.755 6.06501 11.755 6.06501C11.7314 5.86572 11.6649 5.67391 11.5601 5.50276C11.4553 5.33161 11.3147 5.18518 11.148 5.07353C10.9812 4.96189 10.7923 4.88767 10.5941 4.85599C10.3959 4.82431 10.1933 4.83592 10 4.89001V4.89001Z" stroke="#45413C" stroke-width="0.5" stroke-linecap="round" stroke-linejoin="round"/>
<path d="M16.35 2.67003C16.35 2.67003 13.67 10.025 14 11.115C14.1266 11.4587 14.3262 11.7709 14.5852 12.0298C14.8442 12.2888 15.1563 12.4885 15.5 12.615C15.5 12.615 16.085 12.615 16.36 11.235C16.635 9.85503 17.63 4.32503 17.325 3.32503C17.02 2.32503 16.35 2.67003 16.35 2.67003Z" fill="#E0E0E0"/>
<path d="M16.635 4.85003C16.88 5.23503 16.95 6.48003 16.94 7.89003C17.245 5.96503 17.5 3.89003 17.325 3.32503C17.02 2.32503 16.35 2.67003 16.35 2.67003C16.35 2.67003 16.11 3.34003 15.775 4.30003C15.9545 4.30601 16.1291 4.36024 16.2805 4.45702C16.4318 4.55381 16.5543 4.68956 16.635 4.85003Z" fill="#F0F0F0"/>
<path d="M16.35 2.67003C16.35 2.67003 13.67 10.025 14 11.115C14.1266 11.4587 14.3262 11.7709 14.5852 12.0298C14.8442 12.2888 15.1563 12.4885 15.5 12.615C15.5 12.615 16.085 12.615 16.36 11.235C16.635 9.85503 17.63 4.32503 17.325 3.32503C17.02 2.32503 16.35 2.67003 16.35 2.67003Z" stroke="#45413C" stroke-width="0.5" stroke-linecap="round" stroke-linejoin="round"/>
<path d="M6.43501 13.85C6.43501 13.85 8.63501 13.665 9.28501 13.85" stroke="#45413C" stroke-width="0.5" stroke-linecap="round" stroke-linejoin="round"/>
</svg>
