  <svg id="Tick" width="none" height="none"  viewBox="0 0 24 24" fill="none" xmlns="http://www.w3.org/2000/svg">
<path fill-rule="evenodd" clip-rule="evenodd" d="M22.0001 10.8219C22.0001 11.2389 21.6611 11.5779 21.2441 11.5779H21.2351V11.5599C20.8131 11.5599 20.4711 11.2189 20.4701 10.7969V10.7949V8.2529C20.4701 5.1999 18.8001 3.5299 15.7561 3.5299H8.25612C5.21012 3.5299 3.53012 5.2099 3.53012 8.2529V15.7529C3.53012 18.7869 5.21012 20.4669 8.25312 20.4669H15.7531C18.7961 20.4669 20.4671 18.7869 20.4671 15.7529C20.4671 15.3309 20.8091 14.9879 21.2321 14.9879C21.6551 14.9879 21.9971 15.3309 21.9971 15.7529C22.0001 19.6079 19.6081 21.9999 15.7561 21.9999H8.25312C4.39212 21.9999 2.00012 19.6079 2.00012 15.7559V8.2559C2.00012 4.3919 4.39212 1.9999 8.25312 1.9999H15.7531C19.5901 1.9999 22.0001 4.3919 22.0001 8.2529V10.8219ZM10.8137 13.3134L15.0297 9.0964C15.3227 8.8034 15.7977 8.8034 16.0907 9.0964C16.3837 9.3894 16.3837 9.8644 16.0907 10.1574L11.3437 14.9044C11.2027 15.0444 11.0117 15.1234 10.8137 15.1234C10.6137 15.1234 10.4237 15.0444 10.2827 14.9044L7.90972 12.5304C7.61672 12.2374 7.61672 11.7624 7.90972 11.4694C8.20272 11.1764 8.67772 11.1764 8.97072 11.4694L10.8137 13.3134Z" fill="#130F26"/>
</svg>
