<svg id="Update" width="none" height="none" viewBox="0 0 42 42" fill="none" xmlns="http://www.w3.org/2000/svg">
<circle cx="20.9769" cy="20.9769" r="19.8872" fill="url(#paint0_linear_97_982)" stroke="white" stroke-width="2.17942"/>
<path d="M28.2496 26.3495L27.4796 21.599C27.4681 21.5243 27.403 21.4707 27.3283 21.4707H22.3173C22.2426 21.4707 22.1775 21.5243 22.166 21.599L21.3959 26.3495C21.394 26.3571 21.394 26.3667 21.394 26.3744C21.394 26.4587 21.463 26.5276 21.5473 26.5276H28.0983C28.106 26.5276 28.1155 26.5276 28.1232 26.5257C28.2056 26.5123 28.263 26.4338 28.2496 26.3495V26.3495ZM19.2429 21.599C19.2314 21.5243 19.1663 21.4707 19.0916 21.4707H14.0806C14.0059 21.4707 13.9408 21.5243 13.9293 21.599L13.1593 26.3495C13.1573 26.3571 13.1573 26.3667 13.1573 26.3744C13.1573 26.4587 13.2263 26.5276 13.3106 26.5276H19.8616C19.8693 26.5276 19.8789 26.5276 19.8865 26.5257C19.9708 26.5123 20.0264 26.4338 20.0129 26.3495L19.2429 21.599V21.599ZM17.4481 19.9383H23.9991C24.0068 19.9383 24.0163 19.9383 24.024 19.9364C24.1083 19.923 24.1638 19.8444 24.1504 19.7601L23.3804 15.0097C23.3689 14.935 23.3038 14.8813 23.2291 14.8813H18.2181C18.1434 14.8813 18.0783 14.935 18.0668 15.0097L17.2968 19.7601C17.2948 19.7678 17.2948 19.7774 17.2948 19.785C17.2948 19.8693 17.3638 19.9383 17.4481 19.9383Z" fill="black"/>
<defs>
<linearGradient id="paint0_linear_97_982" x1="-38.6847" y1="-44.1333" x2="71.9326" y2="-54.8893" gradientUnits="userSpaceOnUse">
<stop offset="0.133971" stop-color="#130A3B"/>
<stop offset="0.780719" stop-color="white"/>
</linearGradient>
</defs>
</svg>
